HIERARCHY
ROOT Root
{
	OFFSET 0.0000 0.0000 0.0000
	CHANNELS 6 Xposition Yposition Zposition Zrotation Xrotation Yrotation
	JOINT Spine01
	{
		OFFSET 0.0000 -16.7008 118.8322
		CHANNELS 6 Xposition Yposition Zposition Zrotation Xrotation Yrotation
		JOINT Spine02
		{
			OFFSET 0.0000 11.8586 169.5859
			CHANNELS 6 Xposition Yposition Zposition Zrotation Xrotation Yrotation
			JOINT LeftShoulder
			{
				OFFSET 83.0000 21.5583 44.2746
				CHANNELS 6 Xposition Yposition Zposition Zrotation Xrotation Yrotation
				JOINT LeftArm
				{
					OFFSET 0.0000 -111.4369 141.3570
					CHANNELS 6 Xposition Yposition Zposition Zrotation Xrotation Yrotation
					JOINT LeftForeArm
					{
						OFFSET 0.0000 -172.4081 -79.8464
						CHANNELS 6 Xposition Yposition Zposition Zrotation Xrotation Yrotation
						JOINT LeftWrist
						{
							OFFSET 0.0000 -209.8784 7.1457
							CHANNELS 6 Xposition Yposition Zposition Zrotation Xrotation Yrotation
							JOINT LeftHand
							{
								OFFSET 0.0000 -64.9257 26.1658
								CHANNELS 6 Xposition Yposition Zposition Zrotation Xrotation Yrotation
								End Site
								{
									OFFSET 0.0000 -20.5704 56.3636
								}
							}
						}
					}
				}
			}
			JOINT RightShoulder
			{
				OFFSET -83.0000 21.5583 44.2746
				CHANNELS 6 Xposition Yposition Zposition Zrotation Xrotation Yrotation
				JOINT RightArm
				{
					OFFSET 0.0000 -111.4369 141.3570
					CHANNELS 6 Xposition Yposition Zposition Zrotation Xrotation Yrotation
					JOINT RightForeArm
					{
						OFFSET 0.0000 -172.4081 -79.8464
						CHANNELS 6 Xposition Yposition Zposition Zrotation Xrotation Yrotation
						JOINT RightWrist
						{
							OFFSET 0.0000 -209.8784 7.1457
							CHANNELS 6 Xposition Yposition Zposition Zrotation Xrotation Yrotation
							JOINT RightHand
							{
								OFFSET 0.0000 -64.9257 26.1658
								CHANNELS 6 Xposition Yposition Zposition Zrotation Xrotation Yrotation
								End Site
								{
									OFFSET 0.0000 -20.5704 56.3636
								}
							}
						}
					}
				}
			}
			JOINT Neck01
			{
				OFFSET 0.0000 4.1879 119.9269
				CHANNELS 6 Xposition Yposition Zposition Zrotation Xrotation Yrotation
				JOINT Neck02
				{
					OFFSET 0.0000 -14.3102 88.8550
					CHANNELS 6 Xposition Yposition Zposition Zrotation Xrotation Yrotation
					JOINT Neck03
					{
						OFFSET 0.0000 72.0997 53.8668
						CHANNELS 6 Xposition Yposition Zposition Zrotation Xrotation Yrotation
						JOINT Neck04
						{
							OFFSET 0.0000 88.9597 -13.6445
							CHANNELS 6 Xposition Yposition Zposition Zrotation Xrotation Yrotation
							JOINT Head
							{
								OFFSET 0.0000 19.3735 72.4546
								CHANNELS 6 Xposition Yposition Zposition Zrotation Xrotation Yrotation
								End Site
								{
									OFFSET 0.0000 -28.2512 167.6361
								}
								JOINT LeftEar
								{
									OFFSET 45.0000 62.4894 -9.7509
									CHANNELS 6 Xposition Yposition Zposition Zrotation Xrotation Yrotation
									End Site
									{
										OFFSET 23.1256 59.6428 28.4242
									}
								}
								JOINT RightEar
								{
									OFFSET -45.0000 62.4894 -9.7509
									CHANNELS 6 Xposition Yposition Zposition Zrotation Xrotation Yrotation
									End Site
									{
										OFFSET -23.1256 59.6428 28.4242
									}
								}
							}
						}
					}
				}
			}
		}
	}
	JOINT LeftLeg
	{
		OFFSET 75.0000 -65.3041 -110.1607
		CHANNELS 6 Xposition Yposition Zposition Zrotation Xrotation Yrotation
		JOINT LeftLowerLeg
		{
			OFFSET 0.0000 -209.4885 14.6489
			CHANNELS 6 Xposition Yposition Zposition Zrotation Xrotation Yrotation
			JOINT LeftAnkle
			{
				OFFSET 0.0000 -168.5298 -141.4133
				CHANNELS 6 Xposition Yposition Zposition Zrotation Xrotation Yrotation
				JOINT LeftFoot
				{
					OFFSET 0.0000 -96.5926 25.8819
					CHANNELS 6 Xposition Yposition Zposition Zrotation Xrotation Yrotation
					End Site
					{
						OFFSET 0.0000 -19.5341 56.7311
					}
				}
			}
		}
	}
	JOINT RightLeg
	{
		OFFSET -75.0000 -65.3041 -110.1607
		CHANNELS 6 Xposition Yposition Zposition Zrotation Xrotation Yrotation
		JOINT RightLowerLeg
		{
			OFFSET 0.0000 -209.4885 14.6489
			CHANNELS 6 Xposition Yposition Zposition Zrotation Xrotation Yrotation
			JOINT RightAnkle
			{
				OFFSET 0.0000 -168.5298 -141.4133
				CHANNELS 6 Xposition Yposition Zposition Zrotation Xrotation Yrotation
				JOINT RightFoot
				{
					OFFSET 0.0000 -96.5926 25.8819
					CHANNELS 6 Xposition Yposition Zposition Zrotation Xrotation Yrotation
					End Site
					{
						OFFSET 0.0000 -19.5341 56.7311
					}
				}
			}
		}
	}
	JOINT TailBase
	{
		OFFSET 0.0000 -22.9100 -124.3991
		CHANNELS 6 Xposition Yposition Zposition Zrotation Xrotation Yrotation
		JOINT Tail1
		{
			OFFSET 0.0000 0.0000 -67.0000
			CHANNELS 6 Xposition Yposition Zposition Zrotation Xrotation Yrotation
			JOINT Tail2
			{
				OFFSET 0.0000 0.0000 -67.0000
				CHANNELS 6 Xposition Yposition Zposition Zrotation Xrotation Yrotation
				JOINT Tail3
				{
					OFFSET 0.0000 0.0000 -67.0000
					CHANNELS 6 Xposition Yposition Zposition Zrotation Xrotation Yrotation
					JOINT Tail4
					{
						OFFSET 0.0000 0.0000 -67.0000
						CHANNELS 6 Xposition Yposition Zposition Zrotation Xrotation Yrotation
						JOINT Tail5
						{
							OFFSET 0.0000 0.0000 -67.0000
							CHANNELS 6 Xposition Yposition Zposition Zrotation Xrotation Yrotation
							JOINT Tail6
							{
								OFFSET 0.0000 0.0000 -67.0000
								CHANNELS 6 Xposition Yposition Zposition Zrotation Xrotation Yrotation
								End Site
								{
									OFFSET 0.0000 0.0000 -67.0000
								}
							}
						}
					}
				}
			}
		}
	}
}
MOTION
Frames: 4
Frame Time: 0.008342
0.0000 0.0000 0.0000 0.0000 0.0000 0.0000 0.0000 -16.7008 118.8322 0.0000 0.0000 0.0000 0.0000 11.8586 169.5859 0.0000 0.0000 0.0000 83.0000 21.5583 44.2746 0.0000 0.0000 0.0000 0.0000 -111.4369 141.3570 0.0000 0.0000 0.0000 0.0000 -172.4081 -79.8464 0.0000 0.0000 0.0000 0.0000 -209.8784 7.1457 0.0000 0.0000 0.0000 0.0000 -64.9257 26.1658 0.0000 0.0000 0.0000 -83.0000 21.5583 44.2746 0.0000 0.0000 0.0000 0.0000 -111.4369 141.3570 0.0000 0.0000 0.0000 0.0000 -172.4081 -79.8464 0.0000 0.0000 0.0000 0.0000 -209.8784 7.1457 0.0000 0.0000 0.0000 0.0000 -64.9257 26.1658 0.0000 0.0000 0.0000 0.0000 4.1879 119.9269 0.0000 0.0000 0.0000 0.0000 -14.3102 88.8550 0.0000 0.0000 0.0000 0.0000 72.0997 53.8668 0.0000 0.0000 0.0000 0.0000 88.9597 -13.6445 0.0000 0.0000 0.0000 0.0000 19.3735 72.4546 0.0000 0.0000 0.0000 45.0000 62.4894 -9.7509 0.0000 0.0000 0.0000 -45.0000 62.4894 -9.7509 0.0000 0.0000 0.0000 75.0000 -65.3041 -110.1607 0.0000 0.0000 0.0000 0.0000 -209.4885 14.6489 0.0000 0.0000 0.0000 0.0000 -168.5298 -141.4133 0.0000 0.0000 0.0000 0.0000 -96.5926 25.8819 0.0000 0.0000 0.0000 -75.0000 -65.3041 -110.1607 0.0000 0.0000 0.0000 0.0000 -209.4885 14.6489 0.0000 0.0000 0.0000 0.0000 -168.5298 -141.4133 0.0000 0.0000 0.0000 0.0000 -96.5926 25.8819 0.0000 0.0000 0.0000 0.0000 -22.9100 -124.3991 0.0000 0.0000 0.0000 0.0000 0.0000 -67.0000 0.0000 0.0000 0.0000 0.0000 0.0000 -67.0000 0.0000 0.0000 0.0000 0.0000 0.0000 -67.0000 0.0000 0.0000 0.0000 0.0000 0.0000 -67.0000 0.0000 0.0000 0.0000 0.0000 0.0000 -67.0000 0.0000 0.0000 0.0000 0.0000 0.0000 -67.0000 0.0000 0.0000 0.0000 
-80.0649 569.5640 990.8980 0.4994 -12.7593 80.0563 0.0000 -16.7008 118.8322 -0.7703 4.4367 1.3413 0.0000 11.8586 169.5859 -0.2308 3.0397 1.9452 46.3678 29.9156 21.6142 12.5501 -7.5329 12.1076 0.0000 -111.4369 141.3570 0.1742 -15.2078 0.2857 0.0000 -172.4081 -79.8464 0.4044 -25.5573 -10.6040 0.0000 -209.8784 7.1457 8.8168 19.6240 0.3213 0.0000 -64.9257 26.1658 -16.8001 29.7697 13.9533 -75.0210 12.8763 54.3369 1.3029 1.4766 -12.5770 0.0000 -111.4369 141.3570 3.8785 2.4109 13.0824 0.0000 -172.4081 -79.8464 -0.5906 7.0217 17.5586 -0.0000 -209.8784 7.1457 4.9485 -4.7971 0.1684 0.0000 -64.9257 26.1658 7.8474 -9.3673 -1.5589 0.0000 4.1879 119.9269 0.4060 -12.2921 -10.6261 0.0000 -14.3102 88.8550 5.7303 9.8635 8.9631 0.0000 72.0997 53.8668 -6.0477 -2.9116 -6.1027 -0.0000 88.9597 -13.6445 2.9234 5.3936 -4.5090 0.0000 19.3735 72.4546 0.3163 -18.2982 -39.1862 54.3154 60.5243 -6.4821 -11.6675 7.1469 0.7856 -36.4322 70.9242 -4.3849 1.1284 4.9414 6.3925 75.0000 -65.3041 -110.1607 10.8439 -17.0690 11.6302 -0.0000 -209.4885 14.6489 -0.0000 -1.3941 -0.0000 0.0000 -168.5298 -141.4133 0.0000 -18.2417 -0.0000 -0.0000 -96.5926 25.8819 10.2689 25.3315 -7.6550 -75.0000 -65.3041 -110.1607 3.9167 20.5741 -10.4208 0.0000 -209.4885 14.6489 0.0000 -12.5870 -0.0000 0.0000 -168.5298 -141.4133 0.0000 41.3458 0.0000 0.0000 -96.5926 25.8819 -10.5419 -9.2956 1.9022 0.0000 -22.9100 -124.3991 -0.7319 -22.5160 -1.4271 0.0000 0.0000 -67.0000 2.1804 -24.6776 5.2106 0.0000 0.0000 -67.0000 0.3152 -1.6906 10.5635 0.0000 0.0000 -67.0000 -0.7171 4.6885 8.7059 0.0000 0.0000 -67.0000 -3.8898 19.0879 11.7456 0.0000 -0.0000 -67.0000 -15.7492 21.4058 37.6935 0.0000 -0.0000 -67.0000 -5.7758 22.3781 14.8786 
-64.2894 570.0940 988.7940 0.1524 -12.0123 81.6014 -0.0000 -16.7008 118.8322 -1.2738 4.2709 0.2125 -0.0000 11.8586 169.5859 -0.4824 2.6965 1.1329 48.5439 30.3041 24.7098 8.6287 -5.9804 13.3259 0.0000 -111.4369 141.3570 3.9441 -19.0602 -1.5478 0.0000 -172.4081 -79.8464 0.3860 -19.8596 -10.5932 -0.0000 -209.8784 7.1457 7.9228 18.1978 0.2862 0.0000 -64.9257 26.1658 -14.8577 24.6729 11.3359 -74.8048 12.9055 54.8224 1.5958 1.9993 -12.6200 0.0000 -111.4369 141.3570 2.5652 2.3973 12.9132 0.0000 -172.4081 -79.8464 -0.6243 8.5442 18.5429 -0.0000 -209.8784 7.1457 5.2627 -3.6674 0.1789 -0.0000 -64.9257 26.1658 7.6604 -11.5596 -1.2116 0.0000 4.1879 119.9269 0.4580 -12.1522 -10.4760 0.0000 -14.3102 88.8550 5.3509 9.1067 9.2336 0.0000 72.0997 53.8668 -6.1398 -2.9076 -6.0647 -0.0000 88.9597 -13.6445 3.0398 5.6206 -3.8166 0.0000 19.3735 72.4546 0.1712 -18.4639 -39.4899 54.3027 60.6182 -6.8640 -11.5928 7.4960 0.6685 -36.6221 71.1113 -4.0736 1.0043 5.1360 6.4816 75.0000 -65.3041 -110.1607 9.4160 -16.2100 10.3976 0.0000 -209.4885 14.6489 0.0000 -1.4433 0.0000 0.0000 -168.5298 -141.4133 0.0000 -18.2495 0.0000 0.0000 -96.5926 25.8819 10.1789 24.2002 -7.4333 -75.0000 -65.3041 -110.1607 3.3205 20.3549 -10.5961 -0.0000 -209.4885 14.6489 -0.0000 -11.8751 -0.0000 0.0000 -168.5298 -141.4133 -0.0000 42.5241 0.0000 0.0000 -96.5926 25.8819 -10.7039 -2.6763 3.2219 -0.0000 -22.9100 -124.3991 -0.7221 -22.6855 -1.4010 0.0000 -0.0000 -67.0000 1.7351 -24.4564 4.1849 0.0000 0.0000 -67.0000 0.2283 -1.3753 9.4262 -0.0000 0.0000 -67.0000 -0.5274 4.2222 7.1267 0.0000 0.0000 -67.0000 -3.8366 18.7637 11.7764 -0.0000 0.0000 -67.0000 -15.0943 20.5931 37.4819 0.0000 0.0000 -67.0000 -5.6011 21.6601 14.8797 
-48.1265 570.8240 986.4380 -0.3290 -11.6013 83.0366 0.0000 -16.7008 118.8322 -1.3264 4.0992 -0.7743 -0.0000 11.8586 169.5859 -0.6975 2.5640 0.3680 51.3542 29.3840 26.7843 5.6509 -5.0923 13.9557 -0.0000 -111.4369 141.3570 6.6724 -20.3518 -2.8903 0.0000 -172.4081 -79.8464 0.4046 -16.2366 -11.3727 0.0000 -209.8784 7.1457 6.9015 15.7844 0.2459 0.0000 -64.9257 26.1658 -13.6622 17.2147 8.9631 -74.4322 13.1311 55.0704 1.7007 2.2652 -12.6895 -0.0000 -111.4369 141.3570 1.1986 2.3615 12.6285 0.0000 -172.4081 -79.8464 -0.6641 10.0273 19.7043 0.0000 -209.8784 7.1457 5.3766 -2.5244 0.1827 0.0000 -64.9257 26.1658 7.4218 -13.2963 -0.9346 0.0000 4.1879 119.9269 0.2658 -12.5108 -10.2140 0.0000 -14.3102 88.8550 4.9215 8.2964 9.2952 -0.0000 72.0997 53.8668 -6.0065 -2.7457 -5.8915 -0.0000 88.9597 -13.6445 3.0383 6.1456 -3.6283 0.0000 19.3735 72.4546 0.0512 -18.9004 -39.3876 54.2660 60.8462 -6.7104 -11.5739 7.8436 0.5712 -36.2674 71.2787 -3.8314 1.4725 5.4161 6.5111 75.0000 -65.3041 -110.1607 8.4304 -15.2846 8.9331 -0.0000 -209.4885 14.6489 0.0000 -1.5837 0.0000 -0.0000 -168.5298 -141.4133 -0.0000 -18.0836 -0.0000 0.0000 -96.5926 25.8819 10.0000 22.8555 -7.1176 -75.0000 -65.3041 -110.1607 2.8281 19.4193 -11.2154 0.0000 -209.4885 14.6489 0.0000 -10.3308 0.0000 0.0000 -168.5298 -141.4133 -0.0000 42.9632 0.0000 0.0000 -96.5926 25.8819 -10.7173 6.8710 5.0058 0.0000 -22.9100 -124.3991 -0.7210 -22.8376 -1.3925 0.0000 0.0000 -67.0000 1.2963 -24.2041 3.1592 -0.0000 -0.0000 -67.0000 0.2018 -1.4327 8.0202 0.0000 0.0000 -67.0000 -0.3353 3.8102 5.0325 0.0000 -0.0000 -67.0000 -3.6148 17.8948 11.6179 -0.0000 -0.0000 -67.0000 -14.1702 19.6488 36.9020 0.0000 0.0000 -67.0000 -5.1142 20.8643 14.1057 
